<svg preserveAspectRatio="none" overflow="visible" style="display: block;" width="14" height="14" viewBox="0 0 14 14" fill="none" xmlns="http://www.w3.org/2000/svg">
<g id="SVG">
<path id="Vector" d="M1.20283 6.797C1.15422 6.92797 1.15422 7.07203 1.20283 7.203C1.67632 8.35108 2.48005 9.33273 3.51212 10.0235C4.54418 10.7142 5.75811 11.083 7 11.083C8.24189 11.083 9.45582 10.7142 10.4879 10.0235C11.5199 9.33273 12.3237 8.35108 12.7972 7.203C12.8458 7.07203 12.8458 6.92797 12.7972 6.797C12.3237 5.64892 11.5199 4.66727 10.4879 3.97652C9.45582 3.28578 8.24189 2.91703 7 2.91703C5.75811 2.91703 4.54418 3.28578 3.51212 3.97652C2.48005 4.66727 1.67632 5.64892 1.20283 6.797Z" stroke="#8FA3A8" stroke-width="1.16667" stroke-linecap="round" stroke-linejoin="round"/>
<path id="Vector_2" d="M6.99968 8.74935C7.96599 8.74935 8.74935 7.96599 8.74935 6.99968C8.74935 6.03336 7.96599 5.25 6.99968 5.25C6.03336 5.25 5.25 6.03336 5.25 6.99968C5.25 7.96599 6.03336 8.74935 6.99968 8.74935Z" stroke="#8FA3A8" stroke-width="1.16667" stroke-linecap="round" stroke-linejoin="round"/>
</g>
</svg>
