<svg preserveAspectRatio="none" overflow="visible" style="display: block;" width="16" height="16" viewBox="0 0 16 16" fill="none" xmlns="http://www.w3.org/2000/svg">
<g id="material-symbols-light:add-rounded" clip-path="url(#clip0_0_58)">
<path id="Vector" d="M7.41666 8.58333H1.58334C1.41767 8.58333 1.27923 8.52733 1.168 8.41533C1.05678 8.30333 1.00078 8.16449 1 7.99883C0.999226 7.83316 1.05523 7.69472 1.168 7.5835C1.28078 7.47227 1.41923 7.41666 1.58334 7.41666H7.41666V1.58334C7.41666 1.41767 7.47266 1.27923 7.58466 1.168C7.69666 1.05678 7.8355 1.00078 8.00116 1C8.16683 0.999226 8.30527 1.05523 8.4165 1.168C8.52772 1.28078 8.58333 1.41923 8.58333 1.58334V7.41666H14.4167C14.5823 7.41666 14.7208 7.47266 14.832 7.58466C14.9432 7.69666 14.9992 7.8355 15 8.00116C15.0008 8.16683 14.9448 8.30527 14.832 8.4165C14.7192 8.52772 14.5808 8.58333 14.4167 8.58333H8.58333V14.4167C8.58333 14.5823 8.52733 14.7208 8.41533 14.832C8.30333 14.9432 8.16449 14.9992 7.99883 15C7.83316 15.0008 7.69472 14.9448 7.5835 14.832C7.47227 14.7192 7.41666 14.5808 7.41666 14.4167V8.58333Z" fill="#034E58" stroke="#034E58"/>
</g>
<defs>
<clipPath id="clip0_0_58">
<rect width="16" height="16" fill="white"/>
</clipPath>
</defs>
</svg>
